<svg width="86" height="84" viewBox="0 0 86 84" fill="none" xmlns="http://www.w3.org/2000/svg">
<g filter="url(#filter0_d_316_326)">
<path d="M81 74.1321H67.8412V44.3207H24.3851V31.0062H67.8412V1H81V74.1321ZM18.1588 74.1321H5V1H18.1588V74.1321Z" fill="#FE0164"/>
<path d="M67.8855 64.156H33.8197C30.1023 64.156 26.7285 63.4606 23.6983 62.0698C20.6682 60.6791 18.0753 58.7826 15.9199 56.3803C13.7644 53.9465 12.0931 51.1017 10.906 47.8461C9.75021 44.5588 9.1723 41.0345 9.1723 37.2731C9.1723 33.5433 9.75021 30.0664 10.906 26.8424C12.0931 23.5867 13.7644 20.7578 15.9199 18.3556C18.0753 15.9533 20.6682 14.0568 23.6983 12.6661C26.7285 11.2753 30.1023 10.5799 33.8197 10.5799H67.8855V20.3469H33.8197C31.508 20.3469 29.415 20.7894 27.5407 21.6744C25.6976 22.5595 24.1357 23.7606 22.8549 25.2778C21.5741 26.795 20.5901 28.5808 19.9028 30.6354C19.2156 32.6899 18.8719 34.9025 18.8719 37.2731C18.8719 39.6753 19.2156 41.9195 19.9028 44.0057C20.5901 46.0602 21.5741 47.8619 22.8549 49.4107C24.1357 50.9279 25.6976 52.129 27.5407 53.0141C29.415 53.8991 31.508 54.3416 33.8197 54.3416H67.8855V64.156Z" fill="#FE0164"/>
<path d="M81 74.6321H81.5V74.1321V1V0.5H81H67.8412H67.3412V1V10.0799H33.8197C30.0386 10.0799 26.5925 10.7876 23.4897 12.2116C21.7372 13.016 20.1266 13.9871 18.6588 15.1249V1V0.5H18.1588H5H4.5V1V74.1321V74.6321H5H18.1588H18.6588V74.1321V59.611C20.1266 60.7488 21.7372 61.7199 23.4897 62.5242C26.5925 63.9483 30.0386 64.656 33.8197 64.656H67.3412V74.1321V74.6321H67.8412H81ZM67.3412 44.8207V53.8416H33.8197C31.5738 53.8416 29.5554 53.4122 27.7555 52.5625C25.9756 51.7076 24.4719 50.5505 23.2387 49.0903C22.001 47.5931 21.0463 45.8476 20.3773 43.8481C19.7084 41.8173 19.3719 39.6267 19.3719 37.2731C19.3719 34.9514 19.7084 32.7928 20.377 30.794C21.046 28.7939 22.0005 27.0649 23.2369 25.6003C24.4705 24.1391 25.9749 22.9812 27.7557 22.1258C29.5555 21.2763 31.5739 20.8469 33.8197 20.8469H67.3412V30.5062H24.3851H23.8851V31.0062V44.3207V44.8207H24.3851H67.3412Z" stroke="#F5F5F7"/>
</g>
<defs>
<filter id="filter0_d_316_326" x="0" y="0" width="86" height="83.1318" filterUnits="userSpaceOnUse" color-interpolation-filters="sRGB">
<feFlood flood-opacity="0" result="BackgroundImageFix"/>
<feColorMatrix in="SourceAlpha" type="matrix" values="0 0 0 0 0 0 0 0 0 0 0 0 0 0 0 0 0 0 127 0" result="hardAlpha"/>
<feOffset dy="4"/>
<feGaussianBlur stdDeviation="2"/>
<feComposite in2="hardAlpha" operator="out"/>
<feColorMatrix type="matrix" values="0 0 0 0 0 0 0 0 0 0 0 0 0 0 0 0 0 0 0.25 0"/>
<feBlend mode="normal" in2="BackgroundImageFix" result="effect1_dropShadow_316_326"/>
<feBlend mode="normal" in="SourceGraphic" in2="effect1_dropShadow_316_326" result="shape"/>
</filter>
</defs>
</svg>
